<?xml version="1.0" encoding="UTF-8" standalone="no"?>
<!-- Creator: CorelDRAW 2020 (64-Bit) -->

<svg
   xml:space="preserve"
   width="32.972271in"
   height="8.4520054in"
   version="1.1"
   style="clip-rule:evenodd;fill-rule:evenodd;image-rendering:optimizeQuality;shape-rendering:geometricPrecision;text-rendering:geometricPrecision"
   viewBox="0 0 32972.23 8451.9948"
   id="svg2"
   xmlns="http://www.w3.org/2000/svg"
   xmlns:svg="http://www.w3.org/2000/svg">
 <defs
   id="defs2"><style
     type="text/css"
     id="style1">
   <![CDATA[
    .fil0 {fill:url(#id0)}
   ]]>
  </style><linearGradient
     id="id0"
     gradientUnits="userSpaceOnUse"
     x1="14813.13"
     y1="-6072.04"
     x2="14674.24"
     y2="8289.0703"
     gradientTransform="translate(415.91437,-1550.2263)">
   <stop
   offset="0"
   style="stop-opacity:1; stop-color:#4ADAF7"
   id="stop1" />
   <stop
   offset="1"
   style="stop-color:#009ee7;stop-opacity:1;"
   id="stop2" />
  </linearGradient></defs>
 <g
   id="Layer_x0020_1"
   transform="translate(765.74565,-609.31999)">
  <metadata
   id="CorelCorpID_0Corel-Layer" />
  <path
   class="fil0"
   d="M -765.74563,609.33995 H 32206.484 V 6882.3738 c -440.19,-203.04 -930.21,-316.5 -1446.78,-316.5 -634.83,0 -1229.6,171.22 -1740.96,469.75 -736.32,-1176.65 -2043.67,-1959.39 -3534.04,-1959.39 -1639.8,0 -3058.08,947.5 -3737.89,2324.76 -881.69,-1233.24 -2325.43,-2037.14 -3957.01,-2037.14 -2019.17,0 -3750.66,1231.16 -4485.12,2983.6804 -690.92,-757.9804 -1686.22,-1233.6904 -2792.65,-1233.6904 -1422.2996,0 -2660.7996,786.14 -3305.2796,1947.4704 -467.87,-862.12 -1381,-1447.4704 -2430.84,-1447.4704 -359.87,0 -703.65,68.84 -1018.96,193.96 -470.82,-1481.57 -1857.42,-2555.08 -3494.93003,-2555.08 -356.819999,0 -701.64,51.18 -1027.77,146.23 V 609.31995 Z"
   id="path2"
   style="fill:url(#id0)" />
 </g>
</svg>
