<?xml version="1.0" encoding="UTF-8"?>
<svg width="286px" height="171px" viewBox="0 0 286 171" version="1.1" xmlns="http://www.w3.org/2000/svg" xmlns:xlink="http://www.w3.org/1999/xlink">
    <!-- Generator: Sketch 55.2 (78181) - https://sketchapp.com -->
    <title>babydiary</title>
    <desc>Created with Sketch.</desc>
    <g id="Promotion" stroke="none" stroke-width="1" fill="none" fill-rule="evenodd">
        <g id="Artboard" transform="translate(-275.000000, -237.000000)">
            <g id="Group-9" transform="translate(0.000000, -50.000000)">
                <g id="Group-6" transform="translate(253.000000, 0.000000)">
                    <g id="babydiary-large">
                        <g id="Group-5" transform="translate(0.000000, 287.000000)">
                            <g id="CI/Logo">
                                <g transform="translate(36.287998, 0.000000)">
                                    <path d="M91.2631365,91.2866537 C91.6719671,93.2312254 91.8763793,95.2199622 91.8763793,97.2529236 C91.8763793,100.037197 91.5669987,102.860098 90.9482281,105.721712 C90.3294575,108.583326 89.4344635,111.350985 88.2632193,114.024771 C87.091975,116.698557 85.6500402,119.206575 83.9373717,121.5489 C82.2247032,123.891225 80.2634509,125.935205 78.053556,127.6809 C75.8436611,129.426595 73.4128132,130.802138 70.7609394,131.80757 C68.1090656,132.813002 65.2472946,133.31571 62.1755408,133.31571 C61.1368902,133.31571 60.0761566,133.238371 58.9933081,133.083689 C57.9104596,132.929007 56.8607753,132.719085 55.8442236,132.453916 C54.827672,132.188747 53.8663821,131.890437 52.9603252,131.558975 C52.0542683,131.227514 51.2587181,130.88501 50.5736507,130.531451 C50.2863644,130.443062 50.0598536,130.3381 49.8941114,130.216565 C49.7283693,130.095029 49.6013023,129.951398 49.5129065,129.785667 C49.4245107,129.619937 49.3692641,129.415539 49.3471652,129.172467 C49.3250663,128.929396 49.3140169,128.620037 49.3140169,128.244381 C49.3140169,124.576212 49.4079361,120.819709 49.5957771,116.97476 C49.7836182,113.129811 50.1648193,109.373309 50.739392,105.705139 C51.3139647,102.03697 52.1426628,98.5401077 53.2255113,95.214448 C53.7449365,93.6191819 54.6342844,91.6301892 55.8935548,89.2474699 C56.8386797,87.4591579 58.7964913,86.4474863 60.8019368,86.7111321 L61.694891,86.8285242 C63.2183176,87.0288014 64.2909422,88.4261394 64.090665,89.949566 C64.0495761,90.2621124 63.9556683,90.5654027 63.8129481,90.8464802 C63.6081594,91.2498133 63.4380372,91.6175108 63.3025815,91.9495725 C62.6175141,93.6289754 62.0429501,95.3912172 61.5788721,97.2363506 C61.1147942,99.081484 60.7280684,100.96526 60.4186831,102.887734 C60.1092979,104.810208 59.8220158,106.68846 59.5568284,108.522544 C59.2474432,110.555506 58.9877844,112.295651 58.7778444,113.743031 C58.5679044,115.190411 58.4021648,116.455468 58.2806205,117.538241 C58.1590763,118.621014 58.0706819,119.571188 58.0154345,120.388792 C57.9601871,121.206396 57.9325638,122.001891 57.9325638,122.7753 C57.9325638,123.592904 57.9601871,124.277914 58.0154345,124.830349 C58.0706819,125.382784 58.2032736,125.824726 58.4132136,126.156187 C58.6231536,126.487648 58.9435835,126.725191 59.374513,126.868824 C59.8054425,127.012458 60.3855312,127.084273 61.1147965,127.084273 C63.3246914,127.084273 65.42406,126.647856 67.4129654,125.775008 C69.4018708,124.902161 71.236056,123.731016 72.9155761,122.261538 C74.5950962,120.792061 76.1033269,119.085062 77.4403132,117.14049 C78.7772996,115.195918 79.9153784,113.14089 80.8545837,110.975344 C81.7937891,108.809798 82.5175188,106.605615 83.0257946,104.362729 C83.5340704,102.119842 83.7882045,99.9598527 83.7882045,97.8826965 C83.7882045,95.3193974 83.3683308,93.0268258 82.5285707,91.0049132 C81.6888107,88.9830005 76.3500894,81.5417462 66.5511107,81.5417462 C56.7521321,81.5417462 55.6415965,84.0671947 43.8461118,84.6574649 C35.9824554,85.0509784 25.8778512,85.2621781 13.5322993,85.2910639 C5.49191162,85.2910639 0,79.8029539 0,71.7681319 L0,15.7445565 C0,7.70973456 5.49191162,2.22162454 13.5322993,2.22162454 L37.1171638,2.22162454 C55.1094523,2.22162454 68.6835868,11.8184991 69.8934399,27.1979168 C75.4904422,21.4324694 83.163829,17.9661811 91.9036441,17.9661811 C96.5770663,17.9661811 100.919253,19.0375076 104.607331,21.0494454 C106.711205,19.748889 109.289434,19.0286972 112.202093,19.0286972 L120.514791,19.0286972 C122.597328,19.0286972 124.508899,19.3968722 126.198357,20.0821128 L126.198357,13.522932 C126.198357,5.48811002 131.690269,0 139.730656,0 L148.043354,0 C156.083742,0 161.575654,5.48811002 161.575654,13.522932 L161.575654,18.7642977 C163.719587,18.2377818 165.988708,17.9661811 168.341803,17.9661811 C175.300626,17.9661811 181.583368,20.1636956 186.680225,23.9695833 C188.882771,20.9626375 192.65703,19.0286972 197.416915,19.0286972 L206.599547,19.0286972 C213.341719,19.0286972 218.529999,22.6354368 220.59827,29.025532 L220.866228,29.821612 L221.295844,28.6920949 C223.57168,22.5051359 228.672813,19.0286972 235.210694,19.0286972 L243.620051,19.0286972 C253.53862,19.0286972 259.13486,27.5463007 255.129433,36.6631606 L227.79621,97.950992 C225.216139,103.844215 220.321618,106.927755 213.945652,106.927755 L206.696206,106.927755 C196.777637,106.927755 191.181397,98.4101516 195.182189,89.3037062 L202.55763,72.7002023 L198.297925,63.4810193 C194.169513,77.0067398 182.693469,86.35358 168.341803,86.35358 C163.669807,86.35358 159.321502,85.2825933 155.62648,83.2774999 C153.524739,84.573524 150.950646,85.2910639 148.043354,85.2910639 L139.730656,85.2910639 C135.807175,85.2910639 132.490528,83.9842554 130.122724,81.7124112 C127.75492,83.9842554 124.438272,85.2910639 120.514791,85.2910639 L112.202093,85.2910639 C109.294801,85.2910639 106.720709,84.573524 104.618967,83.2774999 C100.923946,85.2825933 96.5756404,86.35358 91.9036441,86.35358 C91.1079617,86.35358 90.3211184,86.3248497 89.5438762,86.2682699 C90.3203115,87.8552176 90.8933935,89.5279985 91.2631365,91.2866537 Z M159.339023,121.780922 C157.681602,121.780922 156.344636,121.443942 155.328084,120.769971 C154.311532,120.096 153.504933,119.212117 152.908261,118.118295 C152.31159,117.024474 151.869617,115.798086 151.582331,114.439095 C151.295045,113.080105 151.063009,111.704562 150.886218,110.312425 L150.355846,110.312425 L144.422307,126.852251 C144.112922,127.71405 143.820116,128.426681 143.543879,128.990165 C143.267642,129.553649 142.985884,130.012163 142.698598,130.365721 C142.411312,130.71928 142.101931,130.967872 141.770447,131.111505 C141.438963,131.255138 141.074335,131.326954 140.676554,131.326954 C139.770497,131.326954 139.041243,131.133604 138.488769,130.7469 C137.936296,130.360195 137.510897,129.840914 137.212562,129.18904 C137.080713,128.900948 136.968289,128.595594 136.875288,128.272976 C135.647083,129.27191 134.509004,130.001113 133.293562,130.597743 C132.07812,131.194373 130.862696,131.492684 129.647254,131.492684 C128.188723,131.492684 126.973299,131.023121 126.000946,130.083981 C125.028592,129.144841 124.188845,127.780347 123.481678,125.990457 C122.951303,126.609184 122.299394,127.238951 121.525931,127.879776 C120.752468,128.5206 119.907196,129.100649 118.990089,129.619938 C118.072983,130.139227 117.117218,130.564595 116.122765,130.896057 C115.128312,131.227518 114.133875,131.393246 113.139422,131.393246 C112.078672,131.393246 111.045562,131.177799 110.04006,130.7469 C109.034558,130.316 108.145088,129.697282 107.371625,128.890727 C106.961572,128.46313 106.595,127.985852 106.271906,127.458888 C105.465255,127.963827 104.619419,128.441105 103.734386,128.890727 C102.364251,129.586795 100.966514,130.166843 99.5411316,130.630889 C98.1157494,131.094935 96.7622091,131.326954 95.48047,131.326954 C94.3313247,131.326954 93.3645102,131.16675 92.5799975,130.846338 C91.7954849,130.525925 91.1601496,130.078459 90.6739727,129.503927 C90.1877959,128.929394 89.8397426,128.227812 89.6298026,127.399159 C89.4198626,126.570507 89.3148942,125.659002 89.3148942,124.664619 C89.3148942,123.272483 89.4751092,121.653872 89.7955439,119.808738 C90.1159787,117.963605 90.5082291,116.052208 90.9723071,114.07449 C91.436385,112.096772 91.9280792,110.124608 92.4474045,108.157939 C92.9667298,106.19127 93.4252761,104.37931 93.8230572,102.722004 C93.9777498,102.147472 94.2871305,101.655812 94.7512084,101.24701 C95.2152863,100.838208 95.7401285,100.506752 96.3257506,100.252631 C96.9113727,99.9985113 97.5190847,99.8106862 98.1489048,99.6891504 C98.7787248,99.5676147 99.3477642,99.5068477 99.85604,99.5068477 C100.784196,99.5068477 101.414006,99.6781001 101.745491,100.02061 C102.076975,100.36312 102.242715,100.821634 102.242715,101.396167 C102.242715,101.882309 102.132221,102.583892 101.911232,103.500934 C101.690242,104.417976 101.41401,105.456539 101.082526,106.616653 C100.751041,107.776767 100.397463,109.025251 100.021781,110.362144 C99.6460992,111.699037 99.2925213,113.03591 98.9610371,114.372804 C98.6295528,115.709697 98.3533201,117.013424 98.1323306,118.284025 C97.9113411,119.554626 97.8008481,120.698149 97.8008481,121.71463 C97.8008481,122.709013 97.9113411,123.498984 98.1323306,124.084565 C98.3533201,124.670146 98.8063418,124.962933 99.4914092,124.962933 C100.286971,124.962933 101.170916,124.686719 102.14327,124.134284 C103.027431,123.631954 103.920717,123.033712 104.823148,122.339541 C104.820522,122.231519 104.819209,122.122654 104.819209,122.012944 C104.819209,120.355638 105.051245,118.654163 105.515323,116.908468 C105.979401,115.162773 106.620261,113.455774 107.437922,111.78742 C108.255583,110.119066 109.222397,108.544649 110.338394,107.064123 C111.454391,105.583597 112.67534,104.290918 114.001277,103.186048 C115.327213,102.081177 116.724951,101.202818 118.194531,100.550945 C119.664111,99.8990715 121.161293,99.5731396 122.68612,99.5731396 C123.194396,99.5731396 123.592171,99.6725765 123.879457,99.8714531 C124.166744,100.07033 124.404304,100.296825 124.592145,100.550945 C124.779986,100.805065 124.962299,101.053657 125.139091,101.296729 C125.315883,101.5398 125.536869,101.716577 125.802056,101.827064 C126.067244,101.937551 126.337952,102.009366 126.614188,102.042512 C126.890425,102.075659 127.172183,102.092231 127.459469,102.092231 C127.702557,102.092231 127.951167,102.086707 128.205305,102.075658 C128.459443,102.06461 128.708052,102.059085 128.951141,102.059085 C129.282625,102.059085 129.592005,102.092231 129.879292,102.158523 C130.166578,102.224815 130.420712,102.368446 130.641702,102.589421 C130.862691,102.810395 131.033955,103.119754 131.1555,103.517507 C131.277044,103.91526 131.337815,104.456639 131.337815,105.141658 C131.337815,106.202334 131.227322,107.379003 131.006333,108.671701 C130.785343,109.964399 130.542258,111.290224 130.277071,112.649214 C130.011884,114.008205 129.768799,115.367175 129.547809,116.726166 C129.32682,118.085156 129.216327,119.372311 129.216327,120.587668 C129.216327,121.626246 129.310246,122.438314 129.498087,123.023895 C129.685928,123.609476 130.089228,123.902262 130.707998,123.902262 C131.172076,123.902262 131.658246,123.786253 132.166522,123.55423 C132.674797,123.322207 133.18859,123.018372 133.707916,122.642717 C134.227241,122.267061 134.746558,121.841692 135.265884,121.366598 C135.782763,120.893741 136.272272,120.404474 136.734423,119.898782 C136.829563,118.939229 136.944744,117.942463 137.079968,116.908468 C137.26781,115.472137 137.488796,114.008206 137.742934,112.516631 C137.997072,111.025056 138.26778,109.605319 138.555066,108.257377 C138.842352,106.909435 139.129634,105.671999 139.416921,104.545031 C139.704207,103.418063 139.991489,102.489986 140.278775,101.760772 C140.455567,101.274629 140.632356,100.88793 140.809147,100.600664 C140.985939,100.313398 141.190351,100.086903 141.42239,99.921172 C141.654429,99.7554415 141.941711,99.6449561 142.284245,99.5897126 C142.626779,99.5344691 143.052177,99.5068477 143.560453,99.5068477 C144.135025,99.5068477 144.582522,99.5344691 144.902957,99.5897126 C145.223392,99.6449561 145.460952,99.7775386 145.615645,99.9874639 C145.770337,100.197389 145.864256,100.501224 145.897405,100.898977 C145.930553,101.296731 145.947127,101.838109 145.947127,102.523129 L145.947127,105.489691 C145.947127,106.649804 145.969226,107.793328 146.013424,108.920296 L146.378055,108.920296 C146.820034,108.0364 147.317253,107.047555 147.869726,105.953734 C148.4222,104.859912 149.06306,103.837922 149.792325,102.887734 C150.52159,101.937546 151.350289,101.136527 152.278444,100.484653 C153.2066,99.8327796 154.278383,99.5068477 155.493825,99.5068477 C155.913705,99.5068477 156.32253,99.5786632 156.720311,99.7222964 C157.118092,99.8659295 157.466145,100.070327 157.764481,100.335496 C158.062817,100.600665 158.300377,100.926597 158.477169,101.313302 C158.65396,101.700006 158.742355,102.136424 158.742355,102.622566 C158.742355,102.998222 158.687108,103.523028 158.576613,104.196999 C158.466119,104.87097 158.344576,105.578076 158.211982,106.318339 C158.079389,107.058602 157.957846,107.776757 157.847352,108.472826 C157.736857,109.168894 157.68161,109.748942 157.68161,110.212988 C157.68161,111.008494 157.758956,111.671406 157.913648,112.201744 C158.068341,112.732082 158.272753,113.157451 158.526891,113.477863 C158.781029,113.798275 159.068311,114.02477 159.388746,114.157355 C159.70918,114.289939 160.046184,114.356231 160.399767,114.356231 C161.060779,114.356231 161.73643,114.2586 162.426729,114.063337 C162.549808,113.394823 162.688788,112.741147 162.843669,112.102306 C163.197252,110.643878 163.639225,109.235189 164.1696,107.876199 C164.699974,106.517208 165.307686,105.141665 165.992754,103.749529 C166.501029,102.755145 167.230284,101.99832 168.180539,101.479031 C169.130793,100.959742 170.058935,100.700102 170.964992,100.700102 C171.738455,100.700102 172.401414,100.893451 172.953888,101.280156 C173.506361,101.66686 173.782594,102.269006 173.782594,103.08661 C173.782594,103.329681 173.754971,103.594846 173.699723,103.882112 C173.644476,104.169379 173.550557,104.478738 173.417963,104.810199 C173.020182,105.826679 172.627932,107.025446 172.2412,108.406534 C171.854469,109.787622 171.51194,111.201834 171.213604,112.649214 C170.915268,114.096595 170.677708,115.516332 170.500917,116.908468 C170.324125,118.300605 170.235731,119.526993 170.235731,120.587668 C170.235731,121.140103 170.274403,121.675957 170.351749,122.195246 C170.429096,122.714535 170.567212,123.178574 170.766103,123.587376 C170.964993,123.996178 171.230177,124.327634 171.561661,124.581754 C171.893145,124.835874 172.313019,124.962933 172.821295,124.962933 C173.638956,124.962933 174.379259,124.609379 175.042228,123.902262 C175.705196,123.195145 176.27976,122.344408 176.765937,121.350025 C177.252114,120.355641 177.644365,119.328127 177.9427,118.267452 C178.241036,117.206776 178.434399,116.322893 178.522795,115.615776 L180.843173,105.870869 C181.019965,105.119557 181.33487,104.451121 181.787898,103.865539 C182.240927,103.279958 182.760244,102.788298 183.345866,102.390545 C183.931488,101.992792 184.544725,101.694481 185.185595,101.495604 C185.826464,101.296728 186.434176,101.197291 187.008749,101.197291 C187.693816,101.197291 188.26838,101.346446 188.732458,101.644761 C189.196536,101.943076 189.428572,102.412639 189.428572,103.053464 C189.428572,103.25234 189.395424,103.48436 189.329127,103.749529 C189.196533,104.324061 189.030793,105.108507 188.831903,106.102891 C188.633012,107.097274 188.417551,108.224225 188.185512,109.483777 C187.953473,110.743329 187.715913,112.074678 187.472824,113.477863 C187.229736,114.881048 186.9977,116.278688 186.776711,117.670825 C186.224237,120.941241 185.660723,124.454676 185.08615,128.211235 C185.749118,127.835579 186.467323,127.371541 187.240787,126.819105 C188.01425,126.26667 188.876096,125.526418 189.826351,124.598327 C190.776605,123.670236 191.837339,122.504615 193.008583,121.10143 C193.430312,120.596187 194.00783,119.852979 194.741136,118.871805 C195.300385,118.123582 196.360202,117.970417 197.108332,118.529724 C197.435092,118.774011 197.662551,119.128197 197.748784,119.526998 L198.317914,122.159089 C198.466008,122.843972 198.319806,123.559577 197.91495,124.131455 C197.573188,124.61421 197.269188,125.00738 197.002948,125.310965 C196.373128,126.029131 195.677022,126.747286 194.914608,127.465451 C194.152194,128.183617 193.356644,128.879675 192.527934,129.553646 C191.699223,130.227617 190.887099,130.862908 190.091537,131.459538 C188.213126,132.873772 186.191103,134.24379 184.025406,135.569635 C183.605526,137.934057 183.108307,140.237677 182.533734,142.480564 C181.959161,144.723451 181.279629,146.822673 180.495116,148.778293 C179.710604,150.733914 178.81561,152.529301 177.810107,154.164509 C176.804605,155.799717 175.666526,157.202881 174.395837,158.374044 C173.125147,159.545207 171.705311,160.456711 170.136286,161.108584 C168.56726,161.760458 166.832519,162.08639 164.932009,162.08639 C164.180645,162.08639 163.368521,162.00905 162.495613,161.854368 C161.622704,161.699686 160.816105,161.390327 160.07579,160.926282 C159.335475,160.462236 158.722238,159.799324 158.236061,158.937525 C157.749885,158.075726 157.5068,156.926678 157.5068,155.490347 C157.5068,154.495964 157.760934,153.374537 158.26921,152.126034 C158.777486,150.87753 159.473592,149.562754 160.35755,148.181666 C161.241508,146.800578 162.291192,145.364269 163.506634,143.872694 C164.722077,142.381119 166.042469,140.89509 167.467851,139.414564 C168.893233,137.934038 170.38489,136.475631 171.942866,135.0393 C173.500842,133.602968 175.075368,132.232949 176.666493,130.929203 L177.561495,127.84663 C176.368152,128.907305 175.125105,129.763567 173.832317,130.41544 C172.539528,131.067314 171.285431,131.393246 170.069989,131.393246 C169.00924,131.393246 167.976129,131.177799 166.970627,130.7469 C165.965125,130.316 165.075656,129.697282 164.302193,128.890727 C163.528729,128.084172 162.909968,127.100852 162.44589,125.940738 C161.981812,124.780624 161.749777,123.471372 161.749777,122.012944 C161.749777,121.827064 161.750655,121.642631 161.752411,121.459644 C160.960798,121.67383 160.156342,121.780922 159.339023,121.780922 Z M99.7919937,97.3727938 C97.1198193,97.3727938 94.953594,95.2065685 94.953594,92.5343941 C94.953594,89.8622198 97.1198193,87.6959944 99.7919937,87.6959944 C102.464168,87.6959944 104.630393,89.8622198 104.630393,92.5343941 C104.630393,95.2065685 102.464168,97.3727938 99.7919937,97.3727938 Z M165.329789,155.722369 C166.257944,155.722369 167.136364,155.451679 167.965075,154.910293 C168.793786,154.368906 169.556188,153.656276 170.252305,152.77238 C170.948422,151.888483 171.583757,150.883066 172.15833,149.756099 C172.732902,148.629131 173.24117,147.474559 173.683149,146.292347 C174.125128,145.110136 174.500805,143.955564 174.81019,142.828596 C175.119575,141.701629 175.36266,140.696212 175.539452,139.812315 C174.677593,140.386848 173.799173,141.071857 172.904165,141.867364 C172.009158,142.662871 171.136263,143.519132 170.285453,144.436175 C169.434643,145.353217 168.628044,146.297867 167.86563,147.270153 C167.103216,148.242439 166.434733,149.17604 165.860161,150.070985 C165.285588,150.96593 164.832566,151.800095 164.501082,152.573504 C164.169598,153.346913 164.003858,153.987728 164.003858,154.495969 C164.003858,155.313573 164.445831,155.722369 165.329789,155.722369 Z M113.305163,120.587668 C113.305163,121.140103 113.343836,121.675957 113.421182,122.195246 C113.498528,122.714535 113.636645,123.178574 113.835535,123.587376 C114.034426,123.996178 114.299609,124.327634 114.631093,124.581754 C114.962578,124.835874 115.382451,124.962933 115.890727,124.962933 C116.708388,124.962933 117.448692,124.609379 118.11166,123.902262 C118.774629,123.195145 119.349193,122.344408 119.83537,121.350025 C120.321547,120.355641 120.713797,119.328127 121.012133,118.267452 C121.310469,117.206776 121.503832,116.322893 121.592227,115.615776 L123.614271,105.870869 C122.708214,105.870869 121.82427,106.097364 120.962411,106.550361 C120.100552,107.003358 119.288427,107.616551 118.526014,108.389961 C117.7636,109.16337 117.061969,110.047253 116.421099,111.041636 C115.78023,112.036019 115.227764,113.080106 114.763686,114.173928 C114.299609,115.26775 113.940506,116.367079 113.686368,117.471949 C113.43223,118.57682 113.305163,119.615382 113.305163,120.587668 Z" id="Combined-Shape" fill="#FFFFFF" fill-rule="nonzero"></path>
                                    <path d="M53.4159326,41.8037734 C61.4476761,43.3520613 65.3183959,51.7708767 65.3183959,57.2866524 C65.3183959,69.4794196 55.3512925,77.4143951 39.9651815,77.4143951 L13.6442871,77.4143951 C9.87033537,77.4143951 7.8382075,75.3822672 7.8382075,71.6083155 L7.8382075,15.482879 C7.8382075,11.7089273 9.87033537,9.67679939 13.6442871,9.67679939 L37.2556776,9.67679939 C51.8676447,9.67679939 62.415356,17.0311669 62.415356,29.2239341 C62.415356,33.5784939 60.3832282,38.9007335 53.4159326,41.8037734 Z M35.1267818,25.5467504 L28.1594862,25.5467504 L28.1594862,37.2556776 L34.1591018,37.2556776 C40.2554854,37.2556776 43.0617573,34.6429418 43.0617573,31.643134 C43.0617573,27.9659502 40.1587175,25.5467504 35.1267818,25.5467504 Z M38.8039655,61.0606041 C43.8359012,61.0606041 45.7712611,58.1575643 45.7712611,55.3512925 C45.7712611,52.4482527 43.0617573,49.2549089 37.0621417,49.2549089 L28.1594862,49.2549089 L28.1594862,61.0606041 L38.8039655,61.0606041 Z M92.1037765,78.478843 C78.5562574,78.478843 68.202082,67.3505237 68.202082,51.9644127 C68.202082,36.5783017 78.5562574,25.4499824 92.1037765,25.4499824 C98.6840001,25.4499824 103.909472,28.2562542 106.618976,32.9011179 L106.618976,32.32051 C106.618976,28.5465582 108.651103,26.5144303 112.425055,26.5144303 L120.747103,26.5144303 C124.521054,26.5144303 126.553182,28.5465582 126.553182,32.32051 L126.553182,71.6083155 C126.553182,75.3822672 124.521054,77.4143951 120.747103,77.4143951 L112.425055,77.4143951 C108.651103,77.4143951 106.618976,75.3822672 106.618976,71.6083155 L106.618976,71.1244755 C103.909472,75.6725712 98.6840001,78.478843 92.1037765,78.478843 Z M168.627906,78.478843 C162.047682,78.478843 156.822211,75.6725712 154.112707,71.1244755 L154.112707,71.6083155 C154.112707,75.3822672 152.080579,77.4143951 148.306627,77.4143951 L139.98458,77.4143951 C136.210628,77.4143951 134.1785,75.3822672 134.1785,71.6083155 L134.1785,13.2572152 C134.1785,9.4832634 136.210628,7.45113553 139.98458,7.45113553 L148.306627,7.45113553 C152.080579,7.45113553 154.112707,9.4832634 154.112707,13.2572152 L154.112707,32.9011179 C156.822211,28.2562542 162.047682,25.4499824 168.627906,25.4499824 C182.175425,25.4499824 192.5296,36.5783017 192.5296,51.9644127 C192.5296,67.3505237 182.175425,78.478843 168.627906,78.478843 Z M163.208898,63.286268 C169.014978,63.286268 172.595394,58.3511003 172.595394,51.9644127 C172.595394,45.5777251 169.014978,40.6425574 163.208898,40.6425574 C157.402819,40.6425574 153.822403,45.5777251 153.822403,51.9644127 C153.822403,58.3511003 157.402819,63.286268 163.208898,63.286268 Z M207.025446,99.0904257 C202.670886,99.0904257 200.832294,96.2841539 202.574118,92.3166661 L211.380006,72.4792274 L193.284391,33.2881899 C191.445799,29.3207021 193.284391,26.5144303 197.735719,26.5144303 L206.928678,26.5144303 C210.315558,26.5144303 212.541222,27.9659502 213.60567,31.256062 L220.766501,52.5450207 L228.895013,31.159294 C230.056228,27.9659502 232.281892,26.5144303 235.572004,26.5144303 L243.99082,26.5144303 C248.345379,26.5144303 250.183971,29.3207021 248.442147,33.2881899 L221.056805,94.735866 C219.702053,97.8324418 217.573157,99.0904257 214.283045,99.0904257 L207.025446,99.0904257 Z" id="Baby" fill="#4ADAF7"></path>
                                    <path d="M98.1655666,42.6947594 C99.606551,41.7933766 101.259011,41.3586045 102.927058,41.5131761 C107.370058,41.9248919 110.232668,46.2747907 109.46482,51.0498187 C108.53629,56.8240831 102.660878,61.075503 95.8454706,63.2163271 L95.0489132,63.466538 L94.3203202,63.0587861 C88.3007981,59.6900028 83.8501488,54.3771145 84.7946823,48.5033303 C85.5480778,43.818179 89.5328769,40.2719884 93.8624871,40.6731968 C95.5280415,40.8275374 97.0175314,41.5525516 98.1655666,42.6947594 Z" id="Combined-Shape" stroke="#FFFFFF" stroke-width="3.87071952" fill="#F76FB3" stroke-linecap="round" stroke-linejoin="round"></path>
                                </g>
                            </g>
                        </g>
                    </g>
                </g>
            </g>
        </g>
    </g>
</svg>