<?xml version="1.0" encoding="UTF-8"?>
<!DOCTYPE svg PUBLIC "-//W3C//DTD SVG 1.1//EN" "http://www.w3.org/Graphics/SVG/1.1/DTD/svg11.dtd">
<!-- Creator: CorelDRAW 2020 (64-Bit) -->
<svg xmlns="http://www.w3.org/2000/svg" xml:space="preserve" width="31.4961in" height="31.4961in" version="1.1" style="shape-rendering:geometricPrecision; text-rendering:geometricPrecision; image-rendering:optimizeQuality; fill-rule:evenodd; clip-rule:evenodd"
viewBox="0 0 31496.06 31496.06"
 xmlns:xlink="http://www.w3.org/1999/xlink"
 xmlns:xodm="http://www.corel.com/coreldraw/odm/2003">
 <defs>
  <style type="text/css">
   <![CDATA[
    .fil0 {fill:url(#id0)}
   ]]>
  </style>
  <linearGradient id="id0" gradientUnits="userSpaceOnUse" x1="14813.13" y1="-6072.04" x2="14674.24" y2="8289.07">
   <stop offset="0" style="stop-opacity:1; stop-color:#4ADAF7"/>
   <stop offset="1" style="stop-opacity:1; stop-color:#0AB1FF"/>
  </linearGradient>
 </defs>
 <g id="Layer_x0020_1">
  <metadata id="CorelCorpID_0Corel-Layer"/>
  <path class="fil0" d="M-1181.66 -335.92l32972.23 0 0 8768.52c-440.19,-203.04 -930.21,-316.5 -1446.78,-316.5 -634.83,0 -1229.6,171.22 -1740.96,469.75 -736.32,-1176.65 -2043.67,-1959.39 -3534.04,-1959.39 -1639.8,0 -3058.08,947.5 -3737.89,2324.76 -881.69,-1233.24 -2325.43,-2037.14 -3957.01,-2037.14 -2019.17,0 -3750.66,1231.16 -4485.12,2983.68 -690.92,-757.98 -1686.22,-1233.69 -2792.65,-1233.69 -1422.3,0 -2660.8,786.14 -3305.28,1947.47 -467.87,-862.12 -1381,-1447.47 -2430.84,-1447.47 -359.87,0 -703.65,68.84 -1018.96,193.96 -470.82,-1481.57 -1857.42,-2555.08 -3494.93,-2555.08 -356.82,0 -701.64,51.18 -1027.77,146.23l0 -7285.12z"/>
 </g>
</svg>
