<?xml version="1.0" encoding="UTF-8"?>
<svg width="100px" height="100px" viewBox="0 0 100 100" version="1.1" xmlns="http://www.w3.org/2000/svg" xmlns:xlink="http://www.w3.org/1999/xlink">
    <!-- Generator: Sketch 50.2 (55047) - http://www.bohemiancoding.com/sketch -->
    <title>icon-milestones</title>
    <desc>Created with Sketch.</desc>
    <defs>
        <linearGradient x1="12.7197266%" y1="21.8291133%" x2="60.0331182%" y2="97.1656156%" id="linearGradient-1">
            <stop stop-color="#FFF0A6" offset="0%"></stop>
            <stop stop-color="#E5992E" offset="34.6830165%"></stop>
            <stop stop-color="#FBE495" offset="60.7991236%"></stop>
            <stop stop-color="#E6992E" offset="100%"></stop>
        </linearGradient>
        <path d="M60.2367755,-3.14903659e-12 C60.8126312,1.58606766 61.2809888,3.24295471 61.6305995,4.95696275 C68.886495,5.7947899 74.52,11.9595072 74.52,19.44 C74.52,27.4923117 67.9923117,34.02 59.94,34.02 C58.4000245,34.02 56.9158124,33.7812486 55.5223595,33.3387417 C51.7318787,38.228311 46.6317119,41.5960872 40.905,42.6101807 L40.905,53.0089059 C40.905,56.9964476 43.8143239,60.3875883 47.7554972,60.9939227 L54.6448508,62.0538232 C55.8272028,62.2357235 56.7,63.2530657 56.7,64.4493282 L56.7,66.4221039 C56.7,66.8682926 56.3382926,67.23 55.8921039,67.23 L18.6278961,67.23 C18.1817074,67.23 17.82,66.8682926 17.82,66.4221039 L17.82,64.4493282 C17.82,63.2530657 18.6927972,62.2357235 19.8751492,62.0538232 L26.7645028,60.9939227 C30.7056761,60.3875883 33.615,56.9964476 33.615,53.0089059 L33.615,42.6101807 C27.8882881,41.5960872 22.7881213,38.228311 18.9976405,33.3387417 C17.6041876,33.7812486 16.1199755,34.02 14.58,34.02 C6.52768835,34.02 0,27.4923117 0,19.44 C0,11.9595072 5.63350501,5.7947899 12.8894005,4.95696275 C13.2390112,3.24295471 13.7073688,1.58606766 14.2832245,-3.23252536e-12 L60.2367755,-3.14770432e-12 Z M12.1505915,12.5646058 C9.31886504,13.5652013 7.29,16.2656672 7.29,19.44 C7.29,23.4661558 10.5538442,26.73 14.58,26.73 C14.7499958,26.73 14.9186326,26.7241813 15.0857221,26.7127322 C13.2375046,22.4894852 12.1791057,17.6759969 12.1505915,12.5646058 Z M59.4342779,26.7127322 C59.6013674,26.7241813 59.7700042,26.73 59.94,26.73 C63.9661558,26.73 67.23,23.4661558 67.23,19.44 C67.23,16.2656672 65.201135,13.5652013 62.3694085,12.5646058 C62.3408943,17.6759969 61.2824954,22.4894852 59.4342779,26.7127322 Z" id="path-2"></path>
        <linearGradient x1="50%" y1="0%" x2="50%" y2="100%" id="linearGradient-4">
            <stop stop-color="#FFF0A6" offset="0%"></stop>
            <stop stop-color="#E6992E" offset="100%"></stop>
        </linearGradient>
    </defs>
    <g id="icon-milestones" stroke="none" stroke-width="1" fill="none" fill-rule="evenodd">
        <g id="iconMilestoneTooth" transform="translate(11.000000, 9.000000)">
            <g id="Group" transform="translate(2.240000, 8.290000)">
                <mask id="mask-3" fill="white">
                    <use xlink:href="#path-2"></use>
                </mask>
                <g id="Mask" fill-rule="nonzero">
                    <use fill="url(#linearGradient-1)" fill-rule="evenodd" xlink:href="#path-2"></use>
                    <path stroke="#FFFFFF" stroke-width="1.61579227" d="M62.3027346,4.23242555 C69.7357713,5.37688285 75.3278961,11.8027636 75.3278961,19.44 C75.3278961,27.9385004 68.4385004,34.8278961 59.94,34.8278961 C58.5316397,34.8278961 57.1480743,34.6384548 55.8168821,34.2690655 C52.0286539,38.9728979 47.1113469,42.1455961 41.7128961,43.2767826 L41.7128961,53.0089059 C41.7128961,56.5976934 44.3312876,59.6497201 47.8783437,60.195421 L54.7676972,61.2553215 C56.3441666,61.4978553 57.5078961,62.8543116 57.5078961,64.4493282 L57.5078961,66.4221039 C57.5078961,67.3144813 56.7844813,68.0378961 55.8921039,68.0378961 L18.6278961,68.0378961 C17.7355187,68.0378961 17.0121039,67.3144813 17.0121039,66.4221039 L17.0121039,64.4493282 C17.0121039,62.8543116 18.1758334,61.4978553 19.7523028,61.2553215 L26.6416563,60.195421 C30.1887124,59.6497201 32.8071039,56.5976934 32.8071039,53.0089059 L32.8071039,43.2767826 C27.4086531,42.1455961 22.4913461,38.9728979 18.7031179,34.2690655 C17.3719257,34.6384548 15.9883603,34.8278961 14.58,34.8278961 C6.08149963,34.8278961 -0.807896136,27.9385004 -0.807896136,19.44 C-0.807896136,11.8027636 4.78422874,5.37688285 12.2172654,4.23242555 C12.5574867,2.68868845 12.994485,1.18225387 13.5238313,-0.275713869 L13.7170514,-0.807896136 L60.8029486,-0.807896136 L60.9961687,-0.275713869 C61.525515,1.18225387 61.9625133,2.68868845 62.3027346,4.23242555 Z M11.3694267,13.8066485 C9.38486128,14.9384644 8.09789614,17.0669581 8.09789614,19.44 C8.09789614,22.7785579 10.6218279,25.5276199 13.8657011,25.8831956 C12.3828021,22.1281394 11.5287906,18.0389149 11.3694267,13.8066485 Z M60.6542989,25.8831956 C63.8981721,25.5276199 66.4221039,22.7785579 66.4221039,19.44 C66.4221039,17.0669581 65.1351387,14.9384644 63.1505733,13.8066485 C62.9912094,18.0389149 62.1371979,22.1281394 60.6542989,25.8831956 Z"></path>
                    <path stroke="#BF7C39" stroke-width="1.61579227" d="M59.6655253,0.807896136 L14.8544747,0.807896136 C14.3744462,2.20305426 13.9818606,3.64340855 13.6809974,5.11842679 L13.5639349,5.69233942 L12.9820713,5.75952632 C6.07511291,6.55706224 0.807896136,12.428506 0.807896136,19.44 C0.807896136,27.0461229 6.97387706,33.2121039 14.58,33.2121039 C16.0130723,33.2121039 17.4156723,32.9934597 18.7531172,32.5687387 L19.2906221,32.3980479 L19.6361464,32.8437606 C23.3840409,37.6783953 28.3408105,40.8557552 33.7558716,41.8146611 L34.4228961,41.9327787 L34.4228961,53.0089059 C34.4228961,57.3952018 31.2226399,61.1254565 26.8873492,61.7924243 L19.9979956,62.8523249 C19.2097609,62.9735918 18.6278961,63.6518199 18.6278961,64.4493282 L18.6278961,66.4221039 L55.8921039,66.4221039 L55.8921039,64.4493282 C55.8921039,63.6518199 55.3102391,62.9735918 54.5220044,62.8523249 L47.6326508,61.7924243 C43.2973601,61.1254565 40.0971039,57.3952018 40.0971039,53.0089059 L40.0971039,41.9327787 L40.7641284,41.8146611 C46.1791895,40.8557552 51.1359591,37.6783953 54.8838536,32.8437606 L55.2293779,32.3980479 L55.7668828,32.5687387 C57.1043277,32.9934597 58.5069277,33.2121039 59.94,33.2121039 C67.5461229,33.2121039 73.7121039,27.0461229 73.7121039,19.44 C73.7121039,12.428506 68.4448871,6.55706224 61.5379287,5.75952632 L60.9560651,5.69233942 L60.8390026,5.11842679 C60.5381394,3.64340855 60.1455538,2.20305426 59.665525,0.807896018 Z M11.8814293,11.8028658 L12.9521402,11.4245283 L12.958475,12.560099 C12.985771,17.4531033 13.9788694,22.1684184 15.8258469,26.3888318 L16.2859915,27.4402796 L15.1409501,27.5187385 C14.9548191,27.5314923 14.7677612,27.5378961 14.58,27.5378961 C10.1076555,27.5378961 6.48210386,23.9123445 6.48210386,19.44 C6.48210386,15.9803458 8.6716343,12.9370524 11.8814293,11.8028658 Z M58.6941531,26.3888318 C60.5411306,22.1684184 61.534229,17.4531033 61.561525,12.560099 L61.5678598,11.4245283 L62.6385707,11.8028658 C65.8483657,12.9370524 68.0378961,15.9803458 68.0378961,19.44 C68.0378961,23.9123445 64.4123445,27.5378961 59.94,27.5378961 C59.7522388,27.5378961 59.5651809,27.5314923 59.3790499,27.5187385 L58.2340085,27.4402796 L58.6941531,26.3888318 Z" stroke-linejoin="square"></path>
                </g>
                <ellipse id="Oval-5" fill="#A66811" opacity="0.400000006" mask="url(#mask-3)" cx="37.26" cy="13.5675" rx="27.54" ry="31.7925"></ellipse>
            </g>
            <path d="M17.0944689,9.09789614 C15.8488005,12.7180943 15.1978961,16.6235315 15.1978961,20.6425 C15.1978961,37.1150553 26.1173267,50.4121039 39.5,50.4121039 C52.8826733,50.4121039 63.8021039,37.1150553 63.8021039,20.6425 C63.8021039,16.6235342 63.1512004,12.7180967 61.9055347,9.09789614 L17.0944689,9.09789614 Z" id="Combined-Shape" stroke="#BF7C39" stroke-width="1.61579227" fill="url(#linearGradient-4)" fill-rule="nonzero"></path>
            <circle id="Oval" fill="#A66811" cx="39.5" cy="28.54" r="16.2"></circle>
            <g id="Icons/iconTooth" transform="translate(26.540000, 17.200000)" stroke="#FFFFFF" stroke-linecap="round" stroke-linejoin="round" stroke-width="1.61579227">
                <path d="M12.9263382,15.3500266 C10.5026498,15.3500266 9.69475363,21.8131957 9.69475363,23.4289879 C7.27106522,23.4289879 7.27106522,16.9658189 7.27106522,14.5421304 C7.27106522,13.3893267 6.44858551,11.6882032 4.80362607,9.43875991 L4.80362063,9.43876389 C3.50176794,7.65851098 3.69181842,5.19503908 5.25132488,3.63553261 L5.25132488,3.63553261 C6.63280756,2.25404993 8.80445069,2.0578845 10.411131,3.16944516 C11.2495412,3.7494632 12.0879397,4.03948068 12.9263382,4.03948068 C13.7647367,4.03948068 14.6031351,3.7494632 15.4415336,3.16942823 L15.4415453,3.16944516 C17.0482257,2.0578845 19.2198688,2.25404993 20.6013515,3.63553261 L20.6013515,3.63553261 C22.1608579,5.19503908 22.3509084,7.65851098 21.0490557,9.43876389 C19.4040908,11.6882032 18.5816111,13.3893267 18.5816111,14.5421304 C18.5816111,16.9658189 18.5816111,23.4289879 16.1579227,23.4289879 C16.1579227,21.8131957 15.3500266,15.3500266 12.9263382,15.3500266 Z" id="Combined-Shape"></path>
                <path d="M19.3895073,6.86711716 C19.3895073,5.75164537 18.4852387,4.84737682 17.3697669,4.84737682" id="Oval"></path>
            </g>
            <path d="M59.75,23.1116934 C59.75,36.2832838 51.0464155,46.9609676 40.31,46.9609676" id="Path" stroke="#FFFFFF" stroke-width="2.42368841" style="mix-blend-mode: soft-light;" stroke-linecap="round" stroke-linejoin="round"></path>
            <path d="M18.44,23.1116934 C18.44,19.5666632 19.0542994,16.1963513 20.1603426,13.149999" id="Path" stroke="#FFFFFF" stroke-width="2.42368841" stroke-linecap="round" stroke-linejoin="round" transform="translate(19.300171, 18.130846) rotate(-4.000000) translate(-19.300171, -18.130846) "></path>
            <path d="M5.48,27.73 C5.48,23.5280995 7.76535811,19.8599729 11.1609044,17.9007903" id="Oval-2" stroke="#FFFFFF" stroke-width="2.42368841" stroke-linecap="round" stroke-linejoin="round"></path>
            <path d="M73.52,27.73 C73.52,33.9929091 68.4429091,39.07 62.18,39.07" id="Oval-2" stroke="#FFFFFF" stroke-width="2.42368841" stroke-linecap="round" stroke-linejoin="round"></path>
            <path d="M33.02,71.47 C35.855,70.4759091 37.745,68.4877273 38.69,64.18" id="Oval-19" stroke="#FFFFFF" stroke-width="2.42368841" style="mix-blend-mode: soft-light;" stroke-linecap="round" stroke-linejoin="round"></path>
            <path d="M55.6647268,13.1026068 L55.1356737,13.4820211 L55.515088,12.952968 C57.1297745,10.7014584 57.1297745,7.67123643 55.515088,5.41972683 L55.1356737,4.8906737 L55.6647268,5.27008799 C57.9162364,6.88477445 60.9464584,6.88477445 63.197968,5.27008799 L63.7270211,4.8906737 L63.3476068,5.41972683 C61.7329203,7.67123643 61.7329203,10.7014584 63.3476068,12.952968 L63.7270211,13.4820211 L63.197968,13.1026068 C60.9464584,11.4879203 57.9162364,11.4879203 55.6647268,13.1026068 Z" id="Star" stroke="#FAB325" stroke-width="1.61579227" fill="#FFFFFF" stroke-linecap="round" stroke-linejoin="round" transform="translate(59.431347, 9.186347) rotate(-45.000000) translate(-59.431347, -9.186347) "></path>
            <path d="M21.3037825,46.8801299 L21.3037825,46.8801299 C22.5314375,45.1682946 22.5314375,42.8644001 21.3037825,41.1525649 L21.3037825,41.1525649 C23.0156177,42.38022 25.3195122,42.38022 27.0313474,41.1525649 L27.0313474,41.1525649 C25.8036923,42.8644001 25.8036923,45.1682946 27.0313474,46.8801299 L27.0313474,46.8801299 C25.3195122,45.6524748 23.0156177,45.6524748 21.3037825,46.8801299 Z" id="Star" stroke="#FAB325" stroke-width="1.61579227" fill="#FFFFFF" stroke-linecap="round" stroke-linejoin="round" transform="translate(24.167565, 44.016347) rotate(-45.000000) translate(-24.167565, -44.016347) "></path>
        </g>
    </g>
</svg>