<?xml version="1.0" encoding="UTF-8"?>
<svg width="100px" height="100px" viewBox="0 0 100 100" version="1.1" xmlns="http://www.w3.org/2000/svg" xmlns:xlink="http://www.w3.org/1999/xlink">
    <!-- Generator: Sketch 50.2 (55047) - http://www.bohemiancoding.com/sketch -->
    <title>icon-statistics</title>
    <desc>Created with Sketch.</desc>
    <defs>
        <circle id="path-1" cx="50.5" cy="32.8461605" r="17.9464286"></circle>
    </defs>
    <g id="icon-statistics" stroke="none" stroke-width="1" fill="none" fill-rule="evenodd">
        <path d="M55.5652713,21.5910585 L68.9899113,21.5910585 C72.9067981,21.5910585 75.4628256,22.1358379 77.826032,23.3996945 C80.0628005,24.5959314 81.8242087,26.3573396 83.0204456,28.5941081 C84.2843022,30.9573145 84.8290816,33.513342 84.8290816,37.4302288 L84.8290816,66.7187248 C84.8290816,70.6356117 84.2843022,73.1916392 83.0204456,75.5548455 C81.8242087,77.7916141 80.0628005,79.5530223 77.826032,80.7492592 C75.4628256,82.0131158 72.9067981,82.5578952 68.9899113,82.5578952 L55.5652713,82.5578952 C54.0426785,82.5578952 53.2834226,82.4112761 52.493689,81.988922 C51.7694205,81.6015789 51.1950312,81.0271896 50.8076882,80.3029212 C50.385334,79.5131875 50.238715,78.7539317 50.238715,77.2313389 L50.238715,26.9176147 C50.238715,25.395022 50.385334,24.6357661 50.8076882,23.8460325 C51.1950312,23.121764 51.7694205,22.5473747 52.493689,22.1600317 C53.2834226,21.7376775 54.0426785,21.5910585 55.5652713,21.5910585 Z M32.0100887,21.5910585 L45.4347287,21.5910585 C46.9573215,21.5910585 47.7165774,21.7376775 48.506311,22.1600317 C49.2305795,22.5473747 49.8049688,23.121764 50.1923118,23.8460325 C50.614666,24.6357661 50.761285,25.395022 50.761285,26.9176147 L50.761285,77.2313389 C50.761285,78.7539317 50.614666,79.5131875 50.1923118,80.3029212 C49.8049688,81.0271896 49.2305795,81.6015789 48.506311,81.988922 C47.7165774,82.4112761 46.9573215,82.5578952 45.4347287,82.5578952 L32.0100887,82.5578952 C28.0932019,82.5578952 25.5371744,82.0131158 23.173968,80.7492592 C20.9371995,79.5530223 19.1757913,77.7916141 17.9795544,75.5548455 C16.7156978,73.1916392 16.1709184,70.6356117 16.1709184,66.7187248 L16.1709184,37.4302288 C16.1709184,33.513342 16.7156978,30.9573145 17.9795544,28.5941081 C19.1757913,26.3573396 20.9371995,24.5959314 23.173968,23.3996945 C25.5371744,22.1358379 28.0932019,21.5910585 32.0100887,21.5910585 Z" id="Mask" stroke="#6ECC7E" stroke-width="2" fill="#BFFFCA"></path>
        <path d="M38.2537013,22.5910585 L65.0174852,22.5910585 C67.8561596,25.7654256 69.5820218,29.9559396 69.5820218,34.5495503 C69.5820218,44.4610891 61.547132,52.4959789 51.6355932,52.4959789 C41.7240544,52.4959789 33.6891646,44.4610891 33.6891646,34.5495503 C33.6891646,29.9559396 35.4150269,25.7654256 38.2537013,22.5910585 Z" id="Mask" fill="#40CE5F" opacity="0.200000003" style="mix-blend-mode: multiply;"></path>
        <path d="M50.5,50.7925891 L50.5,81.5578952" id="Path-5" stroke="#40CE5F" stroke-width="1.6875" opacity="0.300000012" stroke-linecap="round" stroke-linejoin="round"></path>
        <circle id="Oval" fill="#3D994D" opacity="0.200000003" cx="50.5" cy="35.6851435" r="20.217615"></circle>
        <g id="Oval" stroke-linecap="round" stroke-linejoin="round">
            <use fill="#52CC66" fill-rule="evenodd" xlink:href="#path-1"></use>
            <circle stroke="#FFFFFF" stroke-width="2.25" cx="50.5" cy="32.8461605" r="19.0714286"></circle>
            <circle stroke="#36B34A" stroke-width="1.6875" stroke-linejoin="square" cx="50.5" cy="32.8461605" r="17.1026786"></circle>
        </g>
        <path d="M57.7514522,40.0976127 C59.6072606,38.2418042 60.755102,35.6780287 60.755102,32.8461605 C60.755102,27.182424 56.1637365,22.5910585 50.5,22.5910585 C44.8362635,22.5910585 40.244898,27.182424 40.244898,32.8461605 C40.244898,35.6780287 41.3927394,38.2418042 43.2485478,40.0976127" id="Oval" stroke="#BFFFCA" stroke-width="3.375" stroke-linecap="round" stroke-linejoin="round"></path>
        <path d="M50.5,32.8461605 L42.8086735,25.154834" id="Path-4" stroke="#FF6673" stroke-width="3.375" stroke-linecap="round" stroke-linejoin="round"></path>
    </g>
</svg>